<?xml version="1.0" encoding="UTF-8" standalone="no"?>
<svg
   xmlns:dc="http://purl.org/dc/elements/1.1/"
   xmlns:cc="http://creativecommons.org/ns#"
   xmlns:rdf="http://www.w3.org/1999/02/22-rdf-syntax-ns#"
   xmlns:svg="http://www.w3.org/2000/svg"
   xmlns="http://www.w3.org/2000/svg"
   width="350mm"
   height="210mm"
   viewBox="0 0 350 210"
   version="1.1"
   id="svg8">
  <defs
     id="defs2" />
  <metadata
     id="metadata5">
    <rdf:RDF>
      <cc:Work
         rdf:about="">
        <dc:format>image/svg+xml</dc:format>
        <dc:type
           rdf:resource="http://purl.org/dc/dcmitype/StillImage" />
        <dc:title></dc:title>
      </cc:Work>
    </rdf:RDF>
  </metadata>
  <g
     id="layer1"
     transform="translate(-67.3121,100.78812)">
    <path
       style="fill:none;stroke:#643b7a;stroke-width:0.72985202;stroke-linecap:round;stroke-linejoin:miter;stroke-miterlimit:4;stroke-dasharray:none;stroke-opacity:1"
       d="M 89.159844,108.83383 C 78.25246,101.29215 67.345079,93.750481 67.69579,89.597812 68.046501,85.445143 79.655069,84.681627 91.263421,83.918124"
       id="path16093"
       transform="matrix(6.8507036,0,0,6.8507036,-385.55964,-656.04051)" />
    <path
       transform="matrix(5.4763343,0,0,5.4763343,-264.21645,-526.52182)"
       style="fill:none;stroke:#4a73ad;stroke-width:0.91301948;stroke-linecap:round;stroke-linejoin:miter;stroke-miterlimit:4;stroke-dasharray:none;stroke-opacity:1"
       d="M 89.159844,108.83383 C 78.25246,101.29215 67.345079,93.750481 67.69579,89.597812 68.046501,85.445143 79.655069,84.681627 91.263421,83.918124"
       id="path16093-5" />
    <g
       id="text16117"
       style="font-style:normal;font-weight:normal;font-size:71.40579224px;line-height:1.25;font-family:sans-serif;letter-spacing:0px;word-spacing:0px;fill:#643b7a;fill-opacity:1;stroke:none;stroke-width:1.78514481"
       aria-label="RxDock">
      <path
         id="path41"
         style="font-style:normal;font-variant:normal;font-weight:normal;font-stretch:normal;font-size:66.32221985px;font-family:Comfortaa;-inkscape-font-specification:Comfortaa;fill:#643b7a;fill-opacity:1;stroke-width:1.78514481"
         d="m 195.84056,2.3346502 q 0.5969,0.9948333 0.5969,1.7907 0,0.9948333 -0.72955,1.5917333 -0.72954,0.5968999 -1.92334,0.5968999 -0.79587,0 -1.32644,-0.3316111 -0.53058,-0.3316111 -0.92852,-0.9948333 l -11.93799,-18.968155 h -1.12748 -9.81569 V 3.7274169 q 0,1.1274777 -0.72955,1.8570221 -0.72954,0.7295444 -1.85702,0.7295444 -1.12748,0 -1.85702,-0.7295444 -0.72954,-0.7295444 -0.72954,-1.8570221 V -42.897104 q 0,-1.127477 0.72954,-1.857022 0.72954,-0.729544 1.85702,-0.729544 h 12.40226 q 4.84152,0 8.62189,2.055989 3.78036,1.989666 5.90267,5.637388 2.18864,3.647722 2.18864,8.290278 0,5.106811 -2.78554,8.953499 -2.71921,3.846689 -7.42808,5.504745 z M 178.46414,-18.954782 q 3.31611,0 5.969,-1.326445 2.71921,-1.392766 4.1783,-3.780366 1.52541,-2.3876 1.52541,-5.438422 0,-3.183467 -1.52541,-5.703711 -1.45909,-2.520245 -4.11198,-3.913011 -2.65289,-1.392767 -6.03532,-1.392767 h -9.81569 v 21.554722 z" />
      <path
         id="path43"
         style="font-style:normal;font-variant:normal;font-weight:normal;font-stretch:normal;font-size:66.32221985px;font-family:Comfortaa;-inkscape-font-specification:Comfortaa;fill:#643b7a;fill-opacity:1;stroke-width:1.78514481"
         d="m 230.6596,2.3346502 q 0.72954,0.9285111 0.72954,1.7907 0,0.9285111 -0.72954,1.5917333 -0.66322,0.5968999 -1.52541,0.5968999 -0.79587,0 -1.32645,-0.2652888 -0.53057,-0.2652889 -0.99483,-0.9285111 L 215.93607,-8.7411605 204.66129,5.5181168 q -0.5969,0.7958666 -1.7907,0.7958666 -1.06116,0 -1.72438,-0.6632222 -0.5969,-0.6632222 -0.5969,-1.5917332 0,-1.0611556 0.66322,-1.7907 l 11.47375,-14.325599 -10.87685,-13.795022 q -0.66322,-0.729545 -0.66322,-1.7907 0,-0.994833 0.5969,-1.658056 0.5969,-0.663222 1.72438,-0.663222 1.12748,0 1.92334,0.795867 l 10.67788,13.728699 10.54523,-13.330766 q 0.92852,-1.1938 2.18864,-1.1938 1.06115,0 1.65805,0.663222 0.66323,0.663223 0.66323,1.591734 0,0.994833 -0.72955,1.923344 l -11.00949,13.662377 z" />
      <path
         id="path45"
         style="font-style:normal;font-variant:normal;font-weight:normal;font-stretch:normal;font-size:66.32221985px;font-family:Comfortaa;-inkscape-font-specification:Comfortaa;fill:#643b7a;fill-opacity:1;stroke-width:1.78514481"
         d="m 243.39336,6.3139834 q -1.12747,0 -1.85702,-0.7295444 Q 240.8068,4.8548946 240.8068,3.7274169 V -42.897104 q 0,-1.127477 0.72954,-1.857022 0.72955,-0.729544 1.85702,-0.729544 h 11.938 q 7.49441,0 13.39709,3.316111 5.90268,3.316111 9.15247,9.218788 3.31611,5.836356 3.31611,13.330766 0,7.494411 -3.31611,13.3970889 -3.24979,5.90267756 -9.15247,9.2187885 -5.90268,3.316111 -13.39709,3.316111 z m 11.938,-4.6425553 q 6.03533,0 10.7442,-2.7192111 4.70888,-2.7855332 7.36177,-7.6270552 2.65289,-4.8415218 2.65289,-10.9431668 0,-6.101644 -2.65289,-10.943166 -2.65289,-4.841522 -7.36177,-7.560733 -4.70887,-2.719211 -10.7442,-2.719211 h -9.35143 V 1.6714281 Z" />
      <path
         id="path47"
         style="font-style:normal;font-variant:normal;font-weight:normal;font-stretch:normal;font-size:66.32221985px;font-family:Comfortaa;-inkscape-font-specification:Comfortaa;fill:#643b7a;fill-opacity:1;stroke-width:1.78514481"
         d="m 307.72582,6.6455945 q -5.23946,0 -9.48408,-2.3875999 -4.1783,-2.3875999 -6.5659,-6.5658997 -2.3876,-4.2446221 -2.3876,-9.4840779 0,-5.239455 2.3876,-9.484077 2.3876,-4.244622 6.5659,-6.632222 4.24462,-2.3876 9.48408,-2.3876 5.23945,0 9.41775,2.3876 4.1783,2.3876 6.5659,6.632222 2.45392,4.244622 2.45392,9.484077 0,5.2394558 -2.3876,9.4840779 -2.3876,4.1782998 -6.63222,6.5658997 -4.1783,2.3875999 -9.41775,2.3875999 z m 0,-4.6425553 q 3.84669,0 6.89751,-1.79069999 3.05082,-1.79069991 4.7752,-4.90784431 1.72438,-3.1834665 1.72438,-7.0964779 0,-3.979333 -1.72438,-7.096477 -1.72438,-3.183467 -4.7752,-4.974167 -3.05082,-1.7907 -6.89751,-1.7907 -3.78037,0 -6.89751,1.7907 -3.05083,1.7907 -4.84153,4.974167 -1.72437,3.117144 -1.72437,7.096477 0,3.9130114 1.72437,7.0964779 1.7907,3.1171444 4.84153,4.90784431 3.11714,1.79069999 6.89751,1.79069999 z" />
      <path
         id="path49"
         style="font-style:normal;font-variant:normal;font-weight:normal;font-stretch:normal;font-size:66.32221985px;font-family:Comfortaa;-inkscape-font-specification:Comfortaa;fill:#643b7a;fill-opacity:1;stroke-width:1.78514481"
         d="m 352.29423,6.6455945 q -5.17313,0 -9.28511,-2.3875999 -4.11198,-2.4539221 -6.49958,-6.632222 -2.32128,-4.244622 -2.32128,-9.4177556 0,-5.305777 2.25496,-9.484077 2.25496,-4.244622 6.23429,-6.632222 3.97933,-2.3876 8.9535,-2.3876 8.29028,0 13.46341,6.366933 0.53058,0.5969 0.53058,1.392767 0,1.061155 -1.12748,1.857022 -0.5969,0.397933 -1.26012,0.397933 -0.99484,0 -1.92335,-0.994833 -1.98966,-2.188633 -4.37726,-3.249789 -2.3876,-1.127478 -5.30578,-1.127478 -3.64772,0 -6.49958,1.7907 -2.85186,1.724378 -4.44359,4.907845 -1.52541,3.183466 -1.52541,7.162799 0,3.9130114 1.65806,7.0964779 1.65805,3.1171444 4.64255,4.90784431 2.9845,1.79069999 6.83119,1.79069999 5.30578,0 8.55557,-2.8518555 0.86219,-0.7295444 1.7907,-0.7295444 0.79586,0 1.45909,0.5305777 0.92851,0.79586668 0.92851,1.79069997 0,0.86218883 -0.66323,1.45908883 -4.7752,4.4435887 -12.07064,4.4435887 z" />
      <path
         id="path51"
         style="font-style:normal;font-variant:normal;font-weight:normal;font-stretch:normal;font-size:66.32221985px;font-family:Comfortaa;-inkscape-font-specification:Comfortaa;fill:#643b7a;fill-opacity:1;stroke-width:1.78514481"
         d="m 403.03064,2.6662613 q 0.5969,0.6632222 0.5969,1.5254111 0,0.9948333 -0.92851,1.7906999 -0.79587,0.5969 -1.59174,0.5969 -1.06115,0 -1.79069,-0.9285111 L 385.65422,-11.12876 380.68005,-6.6188494 V 3.7937391 q 0,1.1274777 -0.72954,1.8570221 -0.66323,0.6632222 -1.7907,0.6632222 -1.12748,0 -1.85703,-0.6632222 -0.66322,-0.7295444 -0.66322,-1.8570221 V -42.963426 q 0,-1.127478 0.66322,-1.7907 0.72955,-0.729544 1.85703,-0.729544 1.12747,0 1.7907,0.729544 0.72954,0.663222 0.72954,1.7907 v 30.17661 l 18.70287,-16.912166 q 0.72954,-0.663222 1.59173,-0.663222 0.99483,0 1.65806,0.795867 0.72954,0.862188 0.72954,1.591733 0,0.928511 -0.86219,1.658055 l -13.26444,12.004322 z" />
    </g>
  </g>
</svg>
