<?xml version="1.0" encoding="UTF-8" standalone="no"?>
<svg
   xmlns:dc="http://purl.org/dc/elements/1.1/"
   xmlns:cc="http://creativecommons.org/ns#"
   xmlns:rdf="http://www.w3.org/1999/02/22-rdf-syntax-ns#"
   xmlns:svg="http://www.w3.org/2000/svg"
   xmlns="http://www.w3.org/2000/svg"
   id="svg8"
   version="1.1"
   viewBox="0 0 350 210"
   height="210mm"
   width="350mm">
  <defs
     id="defs2" />
  <metadata
     id="metadata5">
    <rdf:RDF>
      <cc:Work
         rdf:about="">
        <dc:format>image/svg+xml</dc:format>
        <dc:type
           rdf:resource="http://purl.org/dc/dcmitype/StillImage" />
        <dc:title></dc:title>
      </cc:Work>
    </rdf:RDF>
  </metadata>
  <g
     transform="translate(-67.3121,100.78812)"
     id="layer1">
    <path
       transform="matrix(6.8507036,0,0,6.8507036,-385.55964,-656.04051)"
       id="path16093"
       d="M 89.159844,108.83383 C 78.25246,101.29215 67.345079,93.750481 67.69579,89.597812 68.046501,85.445143 79.655069,84.681627 91.263421,83.918124"
       style="fill:none;stroke:#643b7a;stroke-width:1.5448535;stroke-linecap:round;stroke-linejoin:miter;stroke-miterlimit:4;stroke-dasharray:none;stroke-opacity:1" />
    <path
       transform="matrix(5.4763343,0,0,5.4763343,-264.21645,-526.52182)"
       id="path16093-5"
       d="M 89.159844,108.83383 C 78.25246,101.29215 67.345079,93.750481 67.69579,89.597812 68.046501,85.445143 79.655069,84.681627 91.263421,83.918124"
       style="fill:none;stroke:#4a73ad;stroke-width:1.93255795;stroke-linecap:round;stroke-linejoin:miter;stroke-miterlimit:4;stroke-dasharray:none;stroke-opacity:1" />
    <g
       aria-label="RxDock"
       style="font-style:normal;font-weight:normal;font-size:71.40579224px;line-height:1.25;font-family:sans-serif;letter-spacing:0px;word-spacing:0px;fill:#643b7a;fill-opacity:1;stroke:none;stroke-width:1.78514481"
       id="text16117">
      <path
         d="m 177.57227,-47.070312 c -4.08675,0.02678 -8.17739,-0.03993 -12.26172,0.04492 -2.19225,0.317002 -3.74352,2.607499 -3.42386,4.7625 0.005,15.523679 -0.0281,31.048627 0.0371,46.5714848 0.20553,2.6060007 3.26996,4.3178989 5.64453,3.3476562 1.89903,-0.6720598 2.9567,-2.8193985 2.66797,-4.7585937 0,-5.0967448 0,-10.1934896 0,-15.2902343 2.82747,0 5.65495,0 8.48242,0 3.99237,6.3089261 7.90896,12.67009173 11.97549,18.9288502 1.88796,2.2705491 6.20617,1.6318528 7.14552,-1.2387133 0.6526,-1.9285066 -0.57342,-3.7787252 -1.59483,-5.31780744 -2.98272,-4.74896646 -5.95266,-9.50670926 -8.93048,-14.25904846 5.53927,-2.576584 9.37598,-8.43638 9.44285,-14.556974 0.28398,-5.957268 -2.57943,-12.111616 -7.71401,-15.287845 -3.3847,-2.168296 -7.47705,-3.099865 -11.47102,-2.946196 z m 0.86914,8.148437 c 3.67956,-0.108472 7.60098,1.744274 9.16996,5.205511 1.3789,2.820841 1.26135,6.381708 -0.49121,9.061942 -1.90277,2.9053 -5.57551,4.191017 -8.98071,4.132938 -2.63363,-0.04716 -5.26884,-0.0094 -7.90312,-0.02148 0,-6.126302 0,-12.252604 0,-18.378906 2.73502,0 5.47005,0 8.20508,0 z"
         style="font-style:normal;font-variant:normal;font-weight:normal;font-stretch:normal;font-size:66.3222px;font-family:Comfortaa;-inkscape-font-specification:Comfortaa;fill:#643b7a;fill-opacity:1;stroke-width:1.78514"
         id="path41" />
      <path
         d="m 228.5293,-31.539062 c -1.5529,0.118504 -2.87875,1.144434 -3.67398,2.438684 -2.92508,3.696871 -5.85016,7.393742 -8.77524,11.090612 -3.26582,-4.163997 -6.44991,-8.394195 -9.79688,-12.490234 -1.65527,-1.497326 -4.65838,-1.461986 -5.9707,0.476562 -1.20916,1.569447 -0.897,3.856292 0.34891,5.306177 3.36024,4.193119 6.65617,8.443269 9.99679,12.654761 -3.74036,4.7155576 -7.58557,9.3525686 -11.22774,14.1395192 -1.23131,2.1164548 0.0125,5.341051 2.52269,5.7334529 1.75509,0.4346812 3.66594,-0.4847869 4.53808,-2.0435343 3.1468,-3.9802553 6.29361,-7.9605106 9.44041,-11.9407659 3.45605,4.3661779 6.82434,8.8055891 10.36914,13.0957031 1.96592,1.8313913 5.74276,0.9831065 6.49905,-1.6675665 0.62684,-1.8214933 -0.51002,-3.6322886 -1.69332,-4.936177 -3.23146,-4.1431532 -6.46293,-8.2863064 -9.6944,-12.4294595 3.58701,-4.511408 7.31179,-8.920679 10.77967,-13.521726 1.23842,-2.071257 0.15229,-5.211736 -2.27694,-5.778461 -0.44835,-0.129359 -0.9212,-0.164744 -1.38554,-0.127547 z"
         style="font-style:normal;font-variant:normal;font-weight:normal;font-stretch:normal;font-size:66.3222px;font-family:Comfortaa;-inkscape-font-specification:Comfortaa;fill:#643b7a;fill-opacity:1;stroke-width:1.78514"
         id="path43" />
      <path
         d="m 251.35742,-47.066406 c -2.99429,0.05522 -6.00444,-0.128581 -8.98856,0.100349 -2.11711,0.445935 -3.47279,2.732987 -3.15014,4.818401 0.005,15.482003 -0.0281,30.965343 0.0371,46.4464841 0.18647,2.3282026 2.6436,3.9648151 4.87968,3.6021838 5.00613,-0.075733 10.02654,0.188754 15.02204,-0.2097975 7.58706,-0.8350535 14.90218,-4.936498 19.07002,-11.4120976 4.38075,-6.6500748 5.53485,-15.1373088 3.79569,-22.8411398 -1.47002,-6.437558 -5.32063,-12.385951 -10.8997,-15.996224 -4.60599,-3.066359 -10.16352,-4.528531 -15.67231,-4.51203 -1.36443,-0.02762 -2.7293,-0.0017 -4.09386,0.0039 z m 3.95703,7.8125 c 2.8963,-0.01467 5.77368,0.521072 8.46942,1.739787 5.32763,2.329642 9.09414,7.496949 10.25074,13.129507 0.51907,2.592451 0.62106,5.410576 0.2467,8.009364 -0.68087,5.177429 -3.3961,10.1626985 -7.75254,13.1366451 -3.21068,2.27579195 -7.16171,3.33438655 -11.07416,3.31413776 -2.62769,0.07702172 -5.26645,-0.08040174 -7.88625,0.03579326 0,-13.12174512 0,-26.24348912 0,-39.36523412 2.58203,0 5.16406,0 7.74609,0 z"
         style="font-style:normal;font-variant:normal;font-weight:normal;font-stretch:normal;font-size:66.3222px;font-family:Comfortaa;-inkscape-font-specification:Comfortaa;fill:#643b7a;fill-opacity:1;stroke-width:1.78514"
         id="path45" />
      <path
         d="m 307.0625,-31.875 c -6.56418,0.07296 -13.1172,3.545732 -16.45117,9.273438 -4.2947,7.163051 -3.88094,17.0003508 1.38082,23.5646704 3.04958,3.9174018 7.7205,6.3964614 12.61047,7.0570979 6.18349,0.8990888 12.86289,-0.9215226 17.33349,-5.3928004 3.08152,-2.96110884 5.01181,-7.000434 5.59319,-11.2172497 0.95745,-6.3471432 -1.03215,-13.1879982 -5.66724,-17.7105842 -3.85339,-3.868195 -9.38379,-5.785343 -14.79956,-5.574572 z m 0.68359,7.808594 c 4.44982,-0.113316 8.91138,2.562233 10.63029,6.718164 2.10857,4.715072 1.39071,10.8147067 -2.36466,14.5083982 -2.38072,2.43139556 -6.01524,3.50056244 -9.27149,3.2226563 -4.50801,-0.25433174 -8.76276,-3.3597906 -10.1567,-7.6884684 -0.48611,-1.4604395 -0.7275,-2.9089931 -0.74027,-4.3598831 -0.0752,-3.500903 1.26698,-7.12964 3.99658,-9.525867 2.14169,-1.937194 5.04473,-2.873101 7.90625,-2.875 z"
         style="font-style:normal;font-variant:normal;font-weight:normal;font-stretch:normal;font-size:66.3222px;font-family:Comfortaa;-inkscape-font-specification:Comfortaa;fill:#643b7a;fill-opacity:1;stroke-width:1.78514"
         id="path47" />
      <path
         d="m 350.76953,-31.865234 c -6.6473,0.132838 -13.0476,4.210993 -15.92094,10.218212 -2.86349,5.738956 -2.99861,12.7599722 -0.43704,18.6301613 2.69946,5.9723859 8.6216,10.4340973 15.18344,11.0751898 5.59965,0.7289869 11.65973,-0.7268258 15.82444,-4.6721896 1.18578,-1.0367253 1.55003,-2.84433624 0.8169,-4.24746762 -0.91345,-2.01648258 -3.65155,-2.99194298 -5.56086,-1.76650818 -1.26269,0.7503158 -2.31474,1.86259847 -3.76133,2.28161547 -2.51297,0.92545019 -5.25048,0.95006627 -7.80757,0.37460364 -4.34941,-1.04167791 -7.66937,-5.12901971 -8.15639,-9.46317361 -0.64393,-4.1338772 0.25206,-8.7826512 3.32521,-11.7917712 3.74481,-3.606103 10.11277,-3.768031 14.15144,-0.558116 1.42818,0.943093 2.31781,2.821571 4.17155,3.021947 2.38611,0.410788 5.00272,-1.779303 4.58049,-4.267549 -0.31347,-1.848127 -1.90739,-3.07149 -3.15488,-4.321664 -3.58565,-3.208923 -8.47295,-4.770238 -13.25446,-4.51329 z"
         style="font-style:normal;font-variant:normal;font-weight:normal;font-stretch:normal;font-size:66.3222px;font-family:Comfortaa;-inkscape-font-specification:Comfortaa;fill:#643b7a;fill-opacity:1;stroke-width:1.78514"
         id="path49" />
      <path
         d="m 377.74805,-47.074219 c -2.2188,0.133258 -4.0067,2.343254 -3.6973,4.541797 0.0139,15.691807 -0.0472,31.38741 0.0526,47.0768138 0.22213,2.1376528 2.44169,3.6591892 4.5216,3.3537185 2.0475,-0.1644425 3.80629,-2.0858093 3.61883,-4.1668093 0.0592,-3.21534897 -0.002,-6.431542 0.0238,-9.6473166 1.07096,-0.9700521 2.14193,-1.9401042 3.21289,-2.9101563 4.38603,5.358892 8.70252,10.7814166 13.17132,16.0673908 1.9491,1.8177766 5.43623,0.7173018 6.30952,-1.7091932 0.66049,-1.6201637 -0.0703,-3.4695774 -1.29894,-4.6046882 -4.08212,-5.0233052 -8.16424,-10.0466104 -12.24635,-15.0699155 4.27379,-3.90161 8.63402,-7.715688 12.8206,-11.708267 1.38808,-1.738094 0.53736,-4.427814 -1.25993,-5.522209 -1.57118,-0.992407 -3.80149,-0.621614 -4.98643,0.804 -5.24089,4.734607 -10.48179,9.469213 -15.72268,14.20382 -0.013,-9.092991 0.0455,-18.190246 -0.052,-27.280526 -0.26203,-2.107628 -2.38772,-3.651982 -4.46753,-3.428459 z"
         style="font-style:normal;font-variant:normal;font-weight:normal;font-stretch:normal;font-size:66.3222px;font-family:Comfortaa;-inkscape-font-specification:Comfortaa;fill:#643b7a;fill-opacity:1;stroke-width:1.78514"
         id="path51" />
    </g>
  </g>
</svg>
