<?xml version="1.0" encoding="UTF-8" standalone="no"?>
<svg
   xmlns:dc="http://purl.org/dc/elements/1.1/"
   xmlns:cc="http://creativecommons.org/ns#"
   xmlns:rdf="http://www.w3.org/1999/02/22-rdf-syntax-ns#"
   xmlns:svg="http://www.w3.org/2000/svg"
   xmlns="http://www.w3.org/2000/svg"
   id="svg8"
   version="1.1"
   viewBox="0 0 297 210"
   height="210mm"
   width="297mm">
  <defs
     id="defs2" />
  <metadata
     id="metadata5">
    <rdf:RDF>
      <cc:Work
         rdf:about="">
        <dc:format>image/svg+xml</dc:format>
        <dc:type
           rdf:resource="http://purl.org/dc/dcmitype/StillImage" />
        <dc:title></dc:title>
      </cc:Work>
    </rdf:RDF>
  </metadata>
  <g
     transform="translate(-67.3121,100.78812)"
     id="layer1">
    <path
       transform="matrix(6.8507036,0,0,6.8507036,-385.55964,-656.04051)"
       id="path16093"
       d="M 89.159844,108.83383 C 78.25246,101.29215 67.345079,93.750481 67.69579,89.597812 68.046501,85.445143 79.655069,84.681627 91.263421,83.918124"
       style="fill:none;stroke:#643b7a;stroke-width:0.72985202;stroke-linecap:round;stroke-linejoin:miter;stroke-miterlimit:4;stroke-dasharray:none;stroke-opacity:1" />
    <path
       id="path16093-5"
       d="M 89.159844,108.83383 C 78.25246,101.29215 67.345079,93.750481 67.69579,89.597812 68.046501,85.445143 79.655069,84.681627 91.263421,83.918124"
       style="fill:none;stroke:#4a73ad;stroke-width:0.91301948;stroke-linecap:round;stroke-linejoin:miter;stroke-miterlimit:4;stroke-dasharray:none;stroke-opacity:1"
       transform="matrix(5.4763343,0,0,5.4763343,-264.21645,-526.52182)" />
    <g
       id="text16117"
       style="font-style:normal;font-weight:normal;font-size:71.40579224px;line-height:1.25;font-family:sans-serif;letter-spacing:0px;word-spacing:0px;fill:#643b7a;fill-opacity:1;stroke:none;stroke-width:1.78514481"
       aria-label="rDock">
      <path
         id="path51"
         style="font-style:normal;font-variant:normal;font-weight:normal;font-stretch:normal;font-size:66.32221985px;font-family:Comfortaa;-inkscape-font-specification:Comfortaa;fill:#643b7a;fill-opacity:1;stroke-width:1.78514481"
         d="m 179.19368,-30.362204 q 2.78554,0 4.37727,0.729544 1.65805,0.729545 1.65805,2.055989 0,0.397933 -0.0663,0.5969 -0.26529,0.928511 -0.86219,1.260122 -0.53057,0.331611 -1.52541,0.331611 -0.5969,0 -2.05599,-0.132644 -0.53057,-0.06632 -1.59173,-0.06632 -4.97417,0 -8.15763,2.652888 -3.11715,2.652889 -3.11715,6.897511 V 3.7937391 q 0,1.1937999 -0.66322,1.8570221 -0.66322,0.6632222 -1.85702,0.6632222 -1.1938,0 -1.85702,-0.6632222 -0.66323,-0.6632222 -0.66323,-1.8570221 V -27.444026 q 0,-1.1938 0.66323,-1.857023 0.66322,-0.663222 1.85702,-0.663222 1.1938,0 1.85702,0.663222 0.66322,0.663223 0.66322,1.857023 v 2.918177 q 1.92335,-2.785533 4.90785,-4.310944 2.9845,-1.525411 6.43325,-1.525411 z" />
      <path
         id="path53"
         style="font-style:normal;font-variant:normal;font-weight:normal;font-stretch:normal;font-size:66.32221985px;font-family:Comfortaa;-inkscape-font-specification:Comfortaa;fill:#643b7a;fill-opacity:1;stroke-width:1.78514481"
         d="m 196.43734,6.3139834 q -1.12747,0 -1.85702,-0.7295444 -0.72954,-0.7295444 -0.72954,-1.8570221 V -42.897104 q 0,-1.127477 0.72954,-1.857022 0.72955,-0.729544 1.85702,-0.729544 h 11.938 q 7.49441,0 13.39709,3.316111 5.90268,3.316111 9.15247,9.218788 3.31611,5.836356 3.31611,13.330766 0,7.494411 -3.31611,13.3970889 -3.24979,5.90267756 -9.15247,9.2187885 -5.90268,3.316111 -13.39709,3.316111 z m 11.938,-4.6425553 q 6.03533,0 10.7442,-2.7192111 4.70888,-2.7855332 7.36177,-7.6270552 2.65289,-4.8415218 2.65289,-10.9431668 0,-6.101644 -2.65289,-10.943166 -2.65289,-4.841522 -7.36177,-7.560733 -4.70887,-2.719211 -10.7442,-2.719211 h -9.35143 V 1.6714281 Z" />
      <path
         id="path55"
         style="font-style:normal;font-variant:normal;font-weight:normal;font-stretch:normal;font-size:66.32221985px;font-family:Comfortaa;-inkscape-font-specification:Comfortaa;fill:#643b7a;fill-opacity:1;stroke-width:1.78514481"
         d="m 260.7698,6.6455945 q -5.23946,0 -9.48408,-2.3875999 -4.1783,-2.3875999 -6.5659,-6.5658997 -2.3876,-4.2446221 -2.3876,-9.4840779 0,-5.239455 2.3876,-9.484077 2.3876,-4.244622 6.5659,-6.632222 4.24462,-2.3876 9.48408,-2.3876 5.23946,0 9.41776,2.3876 4.1783,2.3876 6.5659,6.632222 2.45392,4.244622 2.45392,9.484077 0,5.2394558 -2.3876,9.4840779 -2.3876,4.1782998 -6.63222,6.5658997 -4.1783,2.3875999 -9.41776,2.3875999 z m 0,-4.6425553 q 3.84669,0 6.89751,-1.79069999 3.05082,-1.79069991 4.7752,-4.90784431 1.72438,-3.1834665 1.72438,-7.0964779 0,-3.979333 -1.72438,-7.096477 -1.72438,-3.183467 -4.7752,-4.974167 -3.05082,-1.7907 -6.89751,-1.7907 -3.78037,0 -6.89751,1.7907 -3.05082,1.7907 -4.84152,4.974167 -1.72438,3.117144 -1.72438,7.096477 0,3.9130114 1.72438,7.0964779 1.7907,3.1171444 4.84152,4.90784431 3.11714,1.79069999 6.89751,1.79069999 z" />
      <path
         id="path57"
         style="font-style:normal;font-variant:normal;font-weight:normal;font-stretch:normal;font-size:66.32221985px;font-family:Comfortaa;-inkscape-font-specification:Comfortaa;fill:#643b7a;fill-opacity:1;stroke-width:1.78514481"
         d="m 305.33821,6.6455945 q -5.17314,0 -9.28511,-2.3875999 -4.11198,-2.4539221 -6.49958,-6.632222 -2.32128,-4.244622 -2.32128,-9.4177556 0,-5.305777 2.25496,-9.484077 2.25495,-4.244622 6.23428,-6.632222 3.97934,-2.3876 8.9535,-2.3876 8.29028,0 13.46341,6.366933 0.53058,0.5969 0.53058,1.392767 0,1.061155 -1.12748,1.857022 -0.5969,0.397933 -1.26012,0.397933 -0.99483,0 -1.92334,-0.994833 -1.98967,-2.188633 -4.37727,-3.249789 -2.3876,-1.127478 -5.30578,-1.127478 -3.64772,0 -6.49957,1.7907 -2.85186,1.724378 -4.44359,4.907845 -1.52541,3.183466 -1.52541,7.162799 0,3.9130114 1.65805,7.0964779 1.65806,3.1171444 4.64256,4.90784431 2.9845,1.79069999 6.83119,1.79069999 5.30577,0 8.55556,-2.8518555 0.86219,-0.7295444 1.7907,-0.7295444 0.79587,0 1.45909,0.5305777 0.92851,0.79586668 0.92851,1.79069997 0,0.86218883 -0.66322,1.45908883 -4.7752,4.4435887 -12.07064,4.4435887 z" />
      <path
         id="path59"
         style="font-style:normal;font-variant:normal;font-weight:normal;font-stretch:normal;font-size:66.32221985px;font-family:Comfortaa;-inkscape-font-specification:Comfortaa;fill:#643b7a;fill-opacity:1;stroke-width:1.78514481"
         d="m 356.07463,2.6662613 q 0.5969,0.6632222 0.5969,1.5254111 0,0.9948333 -0.92851,1.7906999 -0.79587,0.5969 -1.59173,0.5969 -1.06116,0 -1.7907,-0.9285111 L 338.69821,-11.12876 333.72404,-6.6188494 V 3.7937391 q 0,1.1274777 -0.72954,1.8570221 -0.66322,0.6632222 -1.7907,0.6632222 -1.12748,0 -1.85702,-0.6632222 -0.66323,-0.7295444 -0.66323,-1.8570221 V -42.963426 q 0,-1.127478 0.66323,-1.7907 0.72954,-0.729544 1.85702,-0.729544 1.12748,0 1.7907,0.729544 0.72954,0.663222 0.72954,1.7907 v 30.17661 l 18.70287,-16.912166 q 0.72954,-0.663222 1.59173,-0.663222 0.99483,0 1.65806,0.795867 0.72954,0.862188 0.72954,1.591733 0,0.928511 -0.86219,1.658055 l -13.26444,12.004322 z" />
    </g>
  </g>
</svg>
